<svg xmlns="http://www.w3.org/2000/svg" xmlns:xlink="http://www.w3.org/1999/xlink" width="201.156" height="545.766" viewBox="0 0 201.156 545.766"><defs><clipPath id="clip-path"><rect id="Ret&#xE2;ngulo_5" data-name="Ret&#xE2;ngulo 5" width="201.156" height="545.766" fill="none"></rect></clipPath></defs><g id="Grupo_70" data-name="Grupo 70" opacity="0.302" style="mix-blend-mode: multiply;isolation: isolate"><g id="Grupo_8" data-name="Grupo 8" clip-path="url(#clip-path)"><path id="Caminho_11" data-name="Caminho 11" d="M201.156,545.766V488.018H176.413q-15.232,0-23.478-1.908a26.943,26.943,0,0,1-13.334-6.981q-5.075-5.075-7.292-14.594c-1.48-6.348-2.22-15.13-2.22-26.126V336.129q0-15.232-3.812-26.014a58.026,58.026,0,0,0-9.517-17.875,54.126,54.126,0,0,0-13.328-11.747A104.819,104.819,0,0,0,88.2,272.559a104.282,104.282,0,0,0,15.232-7.93,53.982,53.982,0,0,0,13.328-11.736,59.524,59.524,0,0,0,9.517-17.666q3.8-10.785,3.812-26.019V107.143c0-11,.74-19.574,2.22-25.917s3.909-11.206,7.292-14.594a26.942,26.942,0,0,1,13.334-6.981q8.243-1.906,23.478-1.9h24.743V0H156.1Q132,0,115.491,5.394c-11,3.592-20.095,8.986-27.29,16.079A70.679,70.679,0,0,0,70.438,49.711C67.05,60.075,65.356,72.765,65.356,88V193.66c0,17.773-3.8,30.356-11.415,37.975A44.535,44.535,0,0,1,41.557,240.2q-7.287,3.483-18.084,3.485H0V301.44H23.473q10.8,0,18.084,3.49A44.216,44.216,0,0,1,53.941,313.5q11.42,11.42,11.415,38.072V457.554q0,22.848,5.082,38.393A70.747,70.747,0,0,0,88.2,524.186q10.792,10.785,27.29,16.181t40.608,5.4Z" fill="#f6a500"></path></g></g></svg>